<svg xmlns="http://www.w3.org/2000/svg" version="1.1" xmlns:xlink="http://www.w3.org/1999/xlink" width="512" height="512" x="0" y="0" viewBox="0 0 16 16" style="enable-background:new 0 0 512 512" xml:space="preserve" class=""><g><path d="M15.5 3.125H.5a.375.375 0 0 0-.375.375v9c0 .207.168.375.375.375h15a.375.375 0 0 0 .375-.375v-9a.375.375 0 0 0-.375-.375zm-2 8a.375.375 0 0 0-.375.375v.625h-1.25V11.5a.375.375 0 0 0-.75 0v.625h-1.25V11.5a.375.375 0 0 0-.75 0v.625h-1.25V11.5a.375.375 0 0 0-.75 0v.625h-1.25V6.5a.375.375 0 0 0-.375-.375h-3a.375.375 0 0 0-.375.375v5.625H.875v-8.25h2.25V4.5a.375.375 0 0 0 .75 0v-.625h1.25V4.5a.375.375 0 0 0 .75 0v-.625h1.25V4.5a.375.375 0 0 0 .75 0v-.625h1.25V4.5a.375.375 0 0 0 .75 0v-.625h1.25V4.5a.375.375 0 0 0 .75 0v-.625h1.25V4.5a.375.375 0 0 0 .75 0v-.625h1.25v8.25h-1.25V11.5a.375.375 0 0 0-.375-.375zM2.875 6.875h2.25v5.25h-2.25z" fill="#f05122" opacity="1" data-original="#000000" class=""></path><path d="M12.5 6.125h-5a.375.375 0 0 0-.375.375v3c0 .207.168.375.375.375h5a.375.375 0 0 0 .375-.375v-3a.375.375 0 0 0-.375-.375zm-2.125.75h1.75v2.25h-1.75zm-.75 2.25h-1.75v-2.25h1.75z" fill="#f05122" opacity="1" data-original="#000000" class=""></path></g></svg>