<svg enable-background="new 0 0 500 500" viewBox="0 0 500 500" xmlns="http://www.w3.org/2000/svg"><g id="Layer_2"/><g id="Layer_1"/><g id="Layer_3"><g><g fill="none" stroke="#474747" stroke-linecap="round" stroke-linejoin="round" stroke-miterlimit="10"><path d="m43.854 128.617h411.033v219.939h-411.033z" stroke-width="15"/><path d="m113 226.638h53.909v121.917h-53.909z" stroke-width="15"/><path d="m218.515 226.638h186.316v57.771h-186.316z" stroke-width="15"/><g stroke-width="10"><path d="m79 129v220"/><path d="m113 129v65"/><path d="m147 129v65"/><path d="m182 129v65"/><path d="m216 129v65"/><path d="m250 129v65"/><path d="m284 129v65"/><path d="m318 129v65"/><path d="m353 129v65"/><path d="m387 129v65"/><path d="m421 129v65"/><path d="m216 316v33"/><path d="m250 316v33"/><path d="m284 316v33"/><path d="m318 316v33"/><path d="m353 316v33"/><path d="m387 316v33"/><path d="m421 316v33"/></g><path d="m100.398 349h79.113v27.081h-79.113z" stroke-width="15"/><path d="m85.928 376.081h108.052v27.081h-108.052z" stroke-width="15"/><path d="m62.5 349v54" stroke-width="15"/><path d="m433.5 349v54" stroke-width="15"/><path d="m21 403.5h459" stroke-width="15"/></g><circle cx="149.917" cy="286.773" fill="#474747" r="6.428"/></g></g></svg>