<?xml version="1.0" encoding="UTF-8"?>
<svg id="Layer_1" xmlns="http://www.w3.org/2000/svg" version="1.1" viewBox="0 0 24 25">
  <!-- Generator: Adobe Illustrator 29.3.1, SVG Export Plug-In . SVG Version: 2.1.0 Build 151)  -->
  <defs>
    <style>
      .st0 {
        fill: #f05122;
      }
    </style>
  </defs>
  <path class="st0" d="M23.4,1.3H2.1c-.3,0-.6.3-.6.6v10.1h-1c-.3,0-.6.3-.6.6h0v10.7c0,.3.3.6.6.6h21.3c.3,0,.6-.3.6-.6v-10.1h1c.3,0,.6-.3.6-.6V1.8c0-.3-.3-.6-.6-.6ZM2.7,2.4h20.2v9.5H2.7V2.4ZM4.2,16.1h3.4v6.5h-3.4v-6.5ZM21.3,22.6h-12.6v-7c0-.3-.3-.6-.6-.6H3.6c-.3,0-.6.3-.6.6h0v7h-1.9v-9.5h20.2v9.5Z"/>
  <path class="st0" d="M12.8,20.7h4.6c.3,0,.6-.3.6-.6v-4.6c0-.3-.3-.6-.6-.6h-4.6c-.3,0-.6.3-.6.6v4.6c0,.3.3.6.6.6ZM13.3,19.5v-3.4h3.4v3.4h-3.4ZM10.5,4.3h-4.6c-.3,0-.6.3-.6.6v4.6c0,.3.3.6.6.6h4.6c.3,0,.6-.3.6-.6v-4.6c0-.3-.3-.6-.6-.6ZM9.9,5.5v3.4h-3.4v-3.4h3.4ZM19.6,4.3h-4.6c-.3,0-.6.3-.6.6v4.6c0,.3.3.6.6.6h4.6c.3,0,.6-.3.6-.6v-4.6c0-.3-.3-.6-.6-.6ZM19,5.5v3.4h-3.4v-3.4h3.4Z"/>
</svg>