<svg xmlns="http://www.w3.org/2000/svg" version="1.1" xmlns:xlink="http://www.w3.org/1999/xlink" width="512" height="512" x="0" y="0" viewBox="0 0 16 16" style="enable-background:new 0 0 512 512" xml:space="preserve" class=""><g><path d="M15.5.625h-14A.375.375 0 0 0 1.125 1v6.625H.5A.375.375 0 0 0 .125 8v7c0 .207.168.375.375.375h8A.375.375 0 0 0 8.875 15V8.375h5.25V15a.375.375 0 0 0 .75 0V8.375h.625A.375.375 0 0 0 15.875 8V1A.375.375 0 0 0 15.5.625zm-13.625.75h13.25v6.25H1.875zm1.5 9h2.25v4.25h-2.25zm4.75 4.25h-1.75V10A.375.375 0 0 0 6 9.625H3a.375.375 0 0 0-.375.375v4.625H.875v-6.25h7.25z" fill="#ffffff" opacity="1" data-original="#000000" class=""></path><path d="M7 2.625H4A.375.375 0 0 0 3.625 3v3c0 .207.168.375.375.375h3A.375.375 0 0 0 7.375 6V3A.375.375 0 0 0 7 2.625zm-.375.75v2.25h-2.25v-2.25zM10 6.375h3A.375.375 0 0 0 13.375 6V3A.375.375 0 0 0 13 2.625h-3A.375.375 0 0 0 9.625 3v3c0 .207.168.375.375.375zm.375-.75v-2.25h2.25v2.25z" fill="#ffffff" opacity="1" data-original="#000000" class=""></path></g></svg>