<svg xmlns="http://www.w3.org/2000/svg" viewBox="0 0 1699.32 1026.09"><defs><style>.cls-1{fill:#f05123;}.cls-2{fill:#004d73;}</style></defs><g id="Layer_2" data-name="Layer 2"><g id="Layer_1-2" data-name="Layer 1"><polygon class="cls-1" points="1563.32 220.42 1149.04 634.69 1029.66 754.07 1029.66 313.24 1342.9 0 1427.31 84.42 1149.04 362.69 1149.04 465.86 1478.9 136 1563.32 220.42"/><polygon class="cls-2" points="1699.32 356.42 1149.04 906.7 1029.66 1026.09 1029.66 857.26 1149.04 737.87 1614.9 272 1699.32 356.42"/><path class="cls-2" d="M518.23,831.11h31.65L571.23,926V831.11h30v192.58H569.6l-20.4-92.25v92.25h-31Z"/><path class="cls-2" d="M647.28,831.11h75.41v30.68H679.31V912h37.32v30.78H679.31v80.9h-32Z"/><path class="cls-2" d="M764.68,831.11h42q38.67.09,38.67,41.65v28.38q0,26.16-21,33.86l30.87,88.69H820.37l-21.93-82.82h-1.73v82.82h-32Zm32,30.68V912h3.85c3.46,0,5.71-.19,6.73-.58q6.06-2.4,6.06-10.29V872.76q0-11-9.42-11Z"/><path class="cls-2" d="M986.14,954.62l9.14,69.07H963l-5.29-40H934.1l-5.39,40H896.49l9.13-68.78,19.53-123.8h41.56Zm-32.61-1.73-7.7-58.29-7.69,58.29Z"/><path class="cls-2" d="M0,313.5H162.18v61.64H62.53v195.1h85.73v61.87H62.53v53.25h99.65V747H0Z"/><path class="cls-2" d="M222.37,313.5h91q83.3.22,83.29,91.25V540.86q0,67.17-59.87,86.61-14.37,4.63-41.76,4.64H284.89V747H222.37Zm62.52,61.64v195.1h14.36q13,0,17.9-1.76,17-6.86,17-27.62V404.75q0-29.61-27.17-29.61Z"/><path class="cls-2" d="M432.05,391.36h60.17v632.33H432.05Z"/><path class="cls-1" d="M432.05,313.24h60.17v59.31H432.05Z"/><path class="cls-2" d="M737.09,662.82q0,91-89.92,91.25-89.71,0-89.71-91.25V397.68q0-91,89.71-91,89.93,0,89.92,91V503.74H674.56V397.68q0-29.16-27.17-29.39h-.45q-27,0-27,29.39V662.82q0,29.38,27.18,29.39,27.39,0,27.39-29.39V592.34h62.53Z"/><path class="cls-2" d="M815.65,397.68q0-91,89.7-91,89.92,0,89.93,91V503.74H932.75V397.68q0-29.16-27.17-29.39h-.45q-27,0-27,29.39V471q0,51,58.55,86.39,58.54,41.76,58.55,105.39,0,91.26-89.7,91.25-89.94-.21-89.93-91.25V632.33h62.53v30.49q0,29.38,27.4,29.39,27.17,0,27.17-29.39,0-31.37-58.55-73.35-58.56-41.76-58.55-117.11Z"/></g></g></svg>