<?xml version="1.0" encoding="UTF-8"?><svg xmlns="http://www.w3.org/2000/svg" id="Layer_1" data-name="Layer 1" viewBox="0 0 1699.32 1026.09"><defs><style> .cls-1 { fill: #f05123; } .cls-2 { fill: #fff; } </style></defs><g id="Layer_2" data-name="Layer 2"><g id="Layer_1-2" data-name="Layer 1-2"><polygon class="cls-1" points="1563.32 220.42 1149.04 634.69 1029.66 754.07 1029.66 313.24 1342.9 0 1427.31 84.42 1149.04 362.69 1149.04 465.86 1478.9 136 1563.32 220.42"/><polygon class="cls-2" points="1699.32 356.42 1149.04 906.7 1029.66 1026.09 1029.66 857.26 1149.04 737.87 1614.9 272 1699.32 356.42"/><path class="cls-2" d="M518.23,831.11h31.65l21.35,94.89v-94.89h30v192.58h-31.63l-20.4-92.25v92.25h-31l.03-192.58Z"/><path class="cls-2" d="M647.28,831.11h75.41v30.68h-43.38v50.21h37.32v30.78h-37.32v80.9h-32l-.03-192.57Z"/><path class="cls-2" d="M764.68,831.11h42c25.78.06,38.67,13.94,38.67,41.65v28.38c0,17.44-7,28.73-21,33.86l30.87,88.69h-34.85l-21.93-82.82h-1.73v82.82h-32l-.03-192.58ZM796.68,861.79v50.21h3.85c3.46,0,5.71-.19,6.73-.58,4.04-1.6,6.06-5.03,6.06-10.29v-28.37c0-7.33-3.14-11-9.42-11l-7.22.03Z"/><path class="cls-2" d="M986.14,954.62l9.14,69.07h-32.28l-5.29-40h-23.61l-5.39,40h-32.22l9.13-68.78,19.53-123.8h41.56l19.43,123.51ZM953.53,952.89l-7.7-58.29-7.69,58.29h15.39Z"/><path class="cls-2" d="M0,313.5h162.18v61.64H62.53v195.1h85.73v61.87H62.53v53.25h99.65v61.64H0v-433.5Z"/><path class="cls-2" d="M222.37,313.5h91c55.53.15,83.3,30.56,83.29,91.25v136.11c0,44.78-19.96,73.65-59.87,86.61-9.58,3.09-23.5,4.63-41.76,4.64h-10.14v114.89h-62.52v-433.5ZM284.89,375.14v195.1h14.36c8.67,0,14.63-.59,17.9-1.76,11.33-4.57,17-13.78,17-27.62v-136.11c0-19.74-9.06-29.61-27.17-29.61h-22.09Z"/><path class="cls-2" d="M432.05,391.36h60.17v632.33h-60.17V391.36Z"/><path class="cls-1" d="M432.05,313.24h60.17v59.31h-60.17v-59.31Z"/><path class="cls-2" d="M737.09,662.82c0,60.67-29.97,91.08-89.92,91.25-59.81,0-89.71-30.42-89.71-91.25v-265.14c0-60.67,29.9-91,89.71-91s89.93,30.33,89.92,91v106.06h-62.53v-106.06c0-19.44-9.06-29.24-27.17-29.39h-.45c-18,0-27,9.8-27,29.39v265.14c0,19.59,9.06,29.38,27.18,29.39,18.26,0,27.39-9.8,27.39-29.39v-70.48h62.53l.05,70.48Z"/><path class="cls-2" d="M815.65,397.68c0-60.67,29.9-91,89.7-91s89.92,30.33,89.93,91v106.06h-62.53v-106.06c0-19.44-9.06-29.24-27.17-29.39h-.45c-18,0-27,9.8-27,29.39v73.32c0,34,19.52,62.8,58.55,86.39,39.03,27.84,58.54,62.97,58.55,105.39,0,60.84-29.9,91.26-89.7,91.25-59.96-.14-89.94-30.56-89.93-91.25v-30.45h62.53v30.49c0,19.59,9.13,29.38,27.4,29.39,18.11,0,27.17-9.8,27.17-29.39,0-20.91-19.52-45.36-58.55-73.35-39.04-27.84-58.56-66.88-58.55-117.11l.05-74.68Z"/></g></g></svg>